<?xml version="1.0" ?><svg viewBox="0 0 512 512" xmlns="http://www.w3.org/2000/svg"><title/><g id="Menu"><path d="M385.0449,27.9974H104.7324a7.9979,7.9979,0,0,0-8,8V411.99a7.998,7.998,0,0,0,8,8H266.0762v56.0078A8.0025,8.0025,0,0,0,278.752,482.49l30.9609-22.2891L340.6738,482.49a8.0025,8.0025,0,0,0,12.6758-6.4922V419.99h31.6953a30.2546,30.2546,0,0,0,30.2227-30.2188V58.2239A30.2612,30.2612,0,0,0,385.0449,27.9974Zm-272.3125,16h24V403.99h-24ZM337.35,460.38l-22.9609-16.5313a8.0039,8.0039,0,0,0-9.3516,0L282.0762,460.38V419.99H337.35Zm61.918-70.6094A14.2337,14.2337,0,0,1,385.0449,403.99H152.7324V43.9974H385.0449a14.24,14.24,0,0,1,14.2227,14.2265Z"/><path d="M317.2637,135.0677c-17.6172,0-31.9492,18.0234-31.9492,40.18,0,18.6621,10.2153,34.25,23.9492,38.748v89.0723a8,8,0,1,0,16,0V213.9954c13.7339-4.498,23.9492-20.0859,23.9492-38.748C349.2129,153.0911,334.8809,135.0677,317.2637,135.0677Zm0,64.3594c-8.6446,0-15.9492-11.07-15.9492-24.18s7.3046-24.18,15.9492-24.18,15.9492,11.07,15.9492,24.18S325.9082,199.4271,317.2637,199.4271Z"/><path d="M258.6816,135.0677a7.9979,7.9979,0,0,0-8,8v40.4141a15.9492,15.9492,0,0,1-31.8984,0V143.0677a8,8,0,0,0-16,0v40.4141a31.9124,31.9124,0,0,0,23.9492,30.8066v88.7793a8,8,0,0,0,16,0V214.2884a31.9124,31.9124,0,0,0,23.9492-30.8066V143.0677A7.9979,7.9979,0,0,0,258.6816,135.0677Z"/><path d="M234.7324,182.0443a7.9979,7.9979,0,0,0,8-8V143.0677a8,8,0,0,0-16,0v30.9766A7.998,7.998,0,0,0,234.7324,182.0443Z"/></g></svg>